<svg version="1.1" viewBox="0 0 67 67" xml:space="preserve" xmlns="http://www.w3.org/2000/svg" xmlns:xlink="http://www.w3.org/1999/xlink"><path d="M44.164,46.268h5.104c0-14.633-11.904-26.546-26.535-26.546  v5.09C34.547,24.812,44.164,34.439,44.164,46.268z M35.143,46.27L35.143,46.27h5.11c0-9.664-7.862-17.525-17.521-17.525v5.088  c3.313,0,6.429,1.295,8.774,3.643C33.85,39.816,35.143,42.945,35.143,46.27z M33,64C16.432,64,3,50.568,3,34C3,17.431,16.432,4,33,4  s30,13.431,30,30C63,50.568,49.568,64,33,64z M26.266,46.278c1.957,0,3.538-1.573,3.538-3.521c0-1.938-1.581-3.528-3.538-3.528  c-1.949,0-3.533,1.591-3.533,3.528C22.732,44.705,24.316,46.278,26.266,46.278z" /></svg>