<svg xmlns="http://www.w3.org/2000/svg" width="440" height="440"><rect x="0" y="0" width="100%" height="100%" fill="rgb(127, 54, 60)"  /><rect x="0" y="5" width="100%" height="15" opacity="0.10666666666666667" fill="#ddd"  /><rect x="0" y="29" width="100%" height="18" opacity="0.13266666666666665" fill="#222"  /><rect x="0" y="57" width="100%" height="10" opacity="0.06333333333333334" fill="#222"  /><rect x="0" y="82" width="100%" height="13" opacity="0.08933333333333333" fill="#ddd"  /><rect x="0" y="113" width="100%" height="12" opacity="0.08066666666666666" fill="#222"  /><rect x="0" y="137" width="100%" height="13" opacity="0.08933333333333333" fill="#ddd"  /><rect x="0" y="169" width="100%" height="10" opacity="0.06333333333333334" fill="#222"  /><rect x="0" y="184" width="100%" height="7" opacity="0.03733333333333333" fill="#ddd"  /><rect x="0" y="198" width="100%" height="20" opacity="0.15" fill="#222"  /><rect x="0" y="233" width="100%" height="16" opacity="0.11533333333333334" fill="#222"  /><rect x="0" y="261" width="100%" height="5" opacity="0.02" fill="#ddd"  /><rect x="0" y="272" width="100%" height="14" opacity="0.098" fill="#222"  /><rect x="0" y="298" width="100%" height="12" opacity="0.08066666666666666" fill="#222"  /><rect x="0" y="327" width="100%" height="10" opacity="0.06333333333333334" fill="#222"  /><rect x="0" y="355" width="100%" height="13" opacity="0.08933333333333333" fill="#ddd"  /><rect x="0" y="377" width="100%" height="5" opacity="0.02" fill="#ddd"  /><rect x="0" y="398" width="100%" height="16" opacity="0.11533333333333334" fill="#222"  /><rect x="0" y="431" width="100%" height="9" opacity="0.05466666666666667" fill="#ddd"  /><rect x="5" y="0" width="15" height="100%" opacity="0.10666666666666667" fill="#ddd"  /><rect x="29" y="0" width="18" height="100%" opacity="0.13266666666666665" fill="#222"  /><rect x="57" y="0" width="10" height="100%" opacity="0.06333333333333334" fill="#222"  /><rect x="82" y="0" width="13" height="100%" opacity="0.08933333333333333" fill="#ddd"  /><rect x="113" y="0" width="12" height="100%" opacity="0.08066666666666666" fill="#222"  /><rect x="137" y="0" width="13" height="100%" opacity="0.08933333333333333" fill="#ddd"  /><rect x="169" y="0" width="10" height="100%" opacity="0.06333333333333334" fill="#222"  /><rect x="184" y="0" width="7" height="100%" opacity="0.03733333333333333" fill="#ddd"  /><rect x="198" y="0" width="20" height="100%" opacity="0.15" fill="#222"  /><rect x="233" y="0" width="16" height="100%" opacity="0.11533333333333334" fill="#222"  /><rect x="261" y="0" width="5" height="100%" opacity="0.02" fill="#ddd"  /><rect x="272" y="0" width="14" height="100%" opacity="0.098" fill="#222"  /><rect x="298" y="0" width="12" height="100%" opacity="0.08066666666666666" fill="#222"  /><rect x="327" y="0" width="10" height="100%" opacity="0.06333333333333334" fill="#222"  /><rect x="355" y="0" width="13" height="100%" opacity="0.08933333333333333" fill="#ddd"  /><rect x="377" y="0" width="5" height="100%" opacity="0.02" fill="#ddd"  /><rect x="398" y="0" width="16" height="100%" opacity="0.11533333333333334" fill="#222"  /><rect x="431" y="0" width="9" height="100%" opacity="0.05466666666666667" fill="#ddd"  /></svg>